<svg width="40" height="17" viewBox="0 0 40 17" fill="none" xmlns="http://www.w3.org/2000/svg">
<path d="M39.148 11.2366L38.7092 13.2309C38.2969 15.1005 36.5123 16.3219 34.5398 16.0854L30.6108 15.6134C28.9005 15.4072 27.4742 14.1492 27.0854 12.5044L26.0057 7.92261C24.2279 7.14062 22.255 6.75771 20.0877 6.7723C18.0008 6.76944 15.9315 7.1871 14.0024 8.00055L13.1246 12.248C12.7909 13.8559 11.4264 15.0316 9.74147 15.1617L5.81379 15.4696C3.85286 15.6221 2.01719 14.3304 1.51708 12.4479L0.980353 10.4314C0.447128 8.42326 1.03757 6.33483 2.53198 4.95213C6.06003 1.68341 11.8233 0.137561 19.8253 0.30833C27.8394 0.479781 33.6855 2.28209 37.3563 5.71324C38.9013 7.15671 39.5841 9.2575 39.148 11.2366V11.2366Z" fill="currentColor"/>
</svg>
