<svg width="17" height="14" viewBox="0 0 17 14" fill="none" xmlns="http://www.w3.org/2000/svg">
<path d="M1.45789 13.4509C1.12276 13.4509 0.829529 13.3252 0.578186 13.0738C0.326843 12.8225 0.201172 12.5293 0.201172 12.1941V1.30261C0.201172 0.967489 0.326843 0.674256 0.578186 0.422913C0.829529 0.17157 1.12276 0.0458984 1.45789 0.0458984H12.3494C12.6845 0.0458984 12.9778 0.17157 13.2291 0.422913C13.4805 0.674256 13.6061 0.967489 13.6061 1.30261V5.80584L16.9574 2.4546V11.0422L13.6061 7.69091V12.1941C13.6061 12.5293 13.4805 12.8225 13.2291 13.0738C12.9778 13.3252 12.6845 13.4509 12.3494 13.4509H1.45789Z" fill="currentColor"/>
</svg>
