<svg width="26" height="26" viewBox="0 0 26 26" fill="none" xmlns="http://www.w3.org/2000/svg">
<path d="M13.3001 3.95166C12.2746 3.95166 11.291 4.35906 10.5659 5.08422C9.84069 5.80939 9.4333 6.79293 9.4333 7.81847V13.232C9.4333 14.2576 9.84069 15.2411 10.5659 15.9663C11.291 16.6914 12.2746 17.0988 13.3001 17.0988C14.3257 17.0988 15.3092 16.6914 16.0344 15.9663C16.7595 15.2411 17.1669 14.2576 17.1669 13.232V7.81847C17.1669 6.79293 16.7595 5.80939 16.0344 5.08422C15.3092 4.35906 14.3257 3.95166 13.3001 3.95166ZM7.11321 12.4587C7.31832 12.4587 7.51502 12.5401 7.66006 12.6852C7.80509 12.8302 7.88657 13.0269 7.88657 13.232C7.88657 14.6678 8.45692 16.0447 9.47216 17.06C10.4874 18.0752 11.8643 18.6456 13.3001 18.6456C14.7359 18.6456 16.1128 18.0752 17.1281 17.06C18.1433 16.0447 18.7136 14.6678 18.7136 13.232C18.7136 13.0269 18.7951 12.8302 18.9402 12.6852C19.0852 12.5401 19.2819 12.4587 19.487 12.4587C19.6921 12.4587 19.8888 12.5401 20.0339 12.6852C20.1789 12.8302 20.2604 13.0269 20.2604 13.232C20.2607 14.9443 19.6298 16.5966 18.4884 17.873C17.347 19.1494 15.7752 19.9603 14.0735 20.1505V21.739C14.0735 21.9441 13.992 22.1408 13.847 22.2859C13.7019 22.4309 13.5052 22.5124 13.3001 22.5124C13.095 22.5124 12.8983 22.4309 12.7533 22.2859C12.6082 22.1408 12.5267 21.9441 12.5267 21.739V20.1505C10.8251 19.9603 9.2532 19.1494 8.11179 17.873C6.97038 16.5966 6.33952 14.9443 6.33984 13.232C6.33984 13.0269 6.42132 12.8302 6.56636 12.6852C6.71139 12.5401 6.9081 12.4587 7.11321 12.4587Z" fill="currentColor"/>
</svg>
