<svg width="29" height="29" viewBox="0 0 29 29" fill="none" xmlns="http://www.w3.org/2000/svg">
<path d="M15.7984 7.28497C15.7982 7.12003 15.7514 6.9585 15.6635 6.81895C15.5756 6.6794 15.45 6.56749 15.3014 6.49608C15.1527 6.42467 14.9869 6.39666 14.823 6.41526C14.6591 6.43387 14.5038 6.49834 14.3749 6.60126L10.2323 9.91463H6.15634C5.92386 9.91463 5.70091 10.007 5.53652 10.1714C5.37214 10.3358 5.27979 10.5587 5.27979 10.7912V17.8036C5.27979 18.0361 5.37214 18.259 5.53652 18.4234C5.70091 18.5878 5.92386 18.6802 6.15634 18.6802H10.2323L14.3749 21.9935C14.5038 22.0964 14.6591 22.1609 14.823 22.1795C14.9869 22.1981 15.1527 22.1701 15.3014 22.0987C15.45 22.0273 15.5756 21.9154 15.6635 21.7758C15.7514 21.6363 15.7982 21.4748 15.7984 21.3098V7.28497ZM21.1016 14.2974C21.1029 15.3336 20.8995 16.3598 20.5029 17.3172C20.1064 18.2745 19.5246 19.144 18.791 19.8758L17.5515 18.6363C18.1221 18.0671 18.5746 17.3908 18.883 16.6462C19.1914 15.9016 19.3496 15.1033 19.3485 14.2974C19.3495 13.4915 19.1912 12.6933 18.8829 11.9486C18.5745 11.204 18.1221 10.5277 17.5515 9.95846L18.791 8.71901C19.5246 9.45077 20.1064 10.3203 20.5029 11.2776C20.8995 12.2349 21.1029 13.2612 21.1016 14.2974Z" fill="currentColor"/>
</svg>
